<svg width="20" height="20" viewBox="0 0 20 20" fill="none" xmlns="http://www.w3.org/2000/svg">
<path d="M7.5 15.833C8.42047 15.833 9.16699 16.5795 9.16699 17.5C9.16699 18.4205 8.42047 19.167 7.5 19.167C6.57954 19.167 5.83301 18.4205 5.83301 17.5C5.83301 16.5795 6.57954 15.833 7.5 15.833ZM16.667 15.833C17.5873 15.8332 18.333 16.5796 18.333 17.5C18.333 18.4204 17.5873 19.1668 16.667 19.167C15.7465 19.167 15 18.4205 15 17.5C15 16.5795 15.7465 15.833 16.667 15.833ZM4.16699 0C4.56404 0.000153719 4.90547 0.280564 4.9834 0.669922L5.68359 4.16699H19.167C19.4152 4.16709 19.6504 4.27754 19.8086 4.46875C19.9669 4.66011 20.0319 4.91229 19.9854 5.15625L18.6504 12.1543C18.5361 12.7295 18.2234 13.2464 17.7666 13.6143C17.3118 13.9803 16.7427 14.1761 16.1592 14.167H8.07422C7.49066 14.1761 6.92157 13.9803 6.4668 13.6143C6.01006 13.2465 5.69741 12.7294 5.58301 12.1543L4.19043 5.19922C4.1848 5.17626 4.18044 5.15256 4.17676 5.12891L3.4834 1.66699H0.833008C0.37292 1.66682 0 1.29314 0 0.833008C0.000175726 0.373029 0.373029 0.000175694 0.833008 0H4.16699ZM7.21777 11.8291C7.25586 12.0209 7.35944 12.1938 7.51172 12.3164C7.66407 12.439 7.85524 12.5037 8.05078 12.5H16.1826C16.378 12.5037 16.5684 12.4388 16.7207 12.3164C16.8723 12.1943 16.9771 12.0228 17.0156 11.832L18.1592 5.83301H6.01758L7.21777 11.8291Z" fill="#636366"/>
</svg>
