<svg width="162" height="32" viewBox="0 0 162 32" fill="none" xmlns="http://www.w3.org/2000/svg">
<path d="M20.6157 1.94818C21.0845 1.46429 21.9036 1.79585 21.9038 2.46967V29.832C21.9038 30.2462 21.568 30.582 21.1538 30.582H14.8403C14.4263 30.5817 14.0903 30.246 14.0903 29.832V8.9931C14.0903 8.79841 14.1659 8.61053 14.3013 8.47064L20.6157 1.94818Z" fill="#254B86" stroke="#254B86" stroke-width="0.5"/>
<path d="M11.9932 16.1754C12.4898 15.8228 13.1777 16.1777 13.1777 16.7868V30.154C13.1777 30.5574 12.8583 30.8891 12.4551 30.904L8.22168 31.0602C7.79706 31.0757 7.44434 30.7352 7.44434 30.3102V19.7926C7.44441 19.5499 7.56186 19.3219 7.75977 19.1813L11.9932 16.1754Z" fill="#254B86" stroke="#254B86" stroke-width="0.5"/>
<path d="M32.2334 17.0051C32.2334 16.3985 32.916 16.0424 33.4131 16.3898L37.6465 19.3508C37.8472 19.4911 37.9668 19.7202 37.9668 19.965V28.4426C37.9668 28.8757 37.6012 29.2193 37.1689 29.1916L32.9355 28.9182C32.5409 28.8927 32.2334 28.5646 32.2334 28.1691V17.0051Z" fill="#254B86" stroke="#254B86" stroke-width="0.5"/>
<path d="M31.1975 7.15277C31.1975 6.83693 31.0483 6.53964 30.7951 6.35091L24.4825 1.64676C23.8226 1.15497 22.8843 1.62642 22.885 2.44943L22.9074 29.2252C22.9079 29.8098 23.4076 30.2694 23.9903 30.2209L30.28 29.6976C30.7984 29.6545 31.1971 29.2212 31.1971 28.7011L31.1975 7.15277Z" stroke="#254B86" stroke-width="0.5" stroke-miterlimit="10"/>
<path d="M29.4946 8.08505V9.73544L24.4194 6.41025V4.59872L29.4946 8.08505Z" fill="#254B86" stroke="#254B86" stroke-width="0.5"/>
<path d="M29.4946 11.3461V12.9965L24.4194 9.6713V7.85977L29.4946 11.3461Z" fill="#254B86" stroke="#254B86" stroke-width="0.5"/>
<path d="M29.4946 14.6003V16.2507L24.4194 12.9255V11.114L29.4946 14.6003Z" fill="#254B86" stroke="#254B86" stroke-width="0.5"/>
<path d="M29.4946 17.8596V19.51L24.4194 16.1848V14.3733L29.4946 17.8596Z" fill="#254B86" stroke="#254B86" stroke-width="0.5"/>
<path d="M29.4946 21.1189V22.7693L24.4194 19.4441V17.6326L29.4946 21.1189Z" fill="#254B86" stroke="#254B86" stroke-width="0.5"/>
<path d="M29.4946 24.3748V26.0252L24.4194 22.7V20.8885L29.4946 24.3748Z" fill="#254B86" stroke="#254B86" stroke-width="0.5"/>
<path d="M29.4946 27.6342V29.2845L24.4194 25.9594V24.1478L29.4946 27.6342Z" fill="#254B86" stroke="#254B86" stroke-width="0.5"/>
<path d="M27.146 29.2433L27.2739 29.9601L24.4194 29.1613V27.4005L27.146 29.2433Z" fill="#254B86" stroke="#254B86" stroke-width="0.5"/>
<path d="M31.0508 29.0347C33.48 28.9642 35.8835 28.9493 38.292 29.1821C39.3487 29.285 40.3187 29.428 41.1777 29.5806L41.1787 29.5815C41.6098 29.6553 42.0135 29.7347 42.3867 29.8159C42.0288 29.7911 41.6443 29.7673 41.2354 29.7446H41.2334C40.364 29.7023 39.3832 29.6809 38.3154 29.6831C35.8731 29.6931 33.4461 29.8637 31.0225 30.0649H31.0215C30.3542 30.1238 29.676 30.1924 28.9902 30.2661C28.3054 30.3402 27.6114 30.4165 26.9131 30.4937H26.9121L22.6777 30.9849C21.2579 31.142 19.8426 31.3003 18.4492 31.4233H18.4482C17.7525 31.4887 17.0613 31.543 16.3779 31.5894C16.0364 31.6122 15.6971 31.6334 15.3604 31.6528L14.3574 31.7056C11.9296 31.7762 9.52765 31.7898 7.12012 31.5571C6.06357 31.4551 5.09376 31.3115 4.23438 31.1597H4.2334C3.80901 31.0872 3.41131 31.0081 3.04297 30.9282C3.39609 30.9527 3.77536 30.9762 4.17773 30.9985H4.17871C4.83095 31.0308 5.54559 31.0509 6.3125 31.0581L7.09668 31.061C9.53854 31.051 11.9659 30.8809 14.3896 30.6792H14.3906C15.0574 30.6202 15.7351 30.5515 16.4209 30.4771C17.1066 30.404 17.8014 30.3265 18.499 30.2495H18.5C19.897 30.0875 21.3158 29.9235 22.7354 29.7573L22.7344 29.7563C24.1541 29.599 25.5694 29.4405 26.9629 29.3179H26.9639C27.6602 29.2527 28.3518 29.1963 29.0342 29.1509C29.7155 29.1051 30.3884 29.0648 31.0498 29.0337L31.0508 29.0347Z" fill="#254B86" stroke="#254B86" stroke-width="0.5"/>
<path d="M56.0781 16.596C56.6134 16.596 57.0754 16.53 57.4641 16.398C57.8528 16.2587 58.1718 16.0717 58.4211 15.837C58.6704 15.595 58.8538 15.3127 58.9711 14.99C59.0884 14.6673 59.1471 14.3153 59.1471 13.934C59.1471 13.1787 58.8941 12.592 58.3881 12.174C57.8894 11.756 57.1268 11.547 56.1001 11.547H54.3841V16.596H56.0781ZM63.8111 25H60.8301C60.2728 25 59.8694 24.7873 59.6201 24.362L56.5841 19.467C56.4594 19.2763 56.3201 19.137 56.1661 19.049C56.0194 18.961 55.7994 18.917 55.5061 18.917H54.3841V25H51.0841V9.039H56.1001C57.2148 9.039 58.1681 9.15633 58.9601 9.391C59.7521 9.61833 60.4011 9.93733 60.9071 10.348C61.4131 10.7587 61.7834 11.25 62.0181 11.822C62.2528 12.3867 62.3701 13.01 62.3701 13.692C62.3701 14.22 62.2931 14.7223 62.1391 15.199C61.9924 15.6683 61.7761 16.0973 61.4901 16.486C61.2041 16.8747 60.8521 17.2193 60.4341 17.52C60.0161 17.8207 59.5394 18.0627 59.0041 18.246C59.2168 18.3633 59.4148 18.5063 59.5981 18.675C59.7814 18.8363 59.9464 19.0307 60.0931 19.258L63.8111 25ZM71.3953 17.993C71.3953 17.6777 71.3513 17.377 71.2633 17.091C71.1826 16.805 71.0506 16.552 70.8673 16.332C70.6839 16.112 70.4529 15.9397 70.1743 15.815C69.8956 15.683 69.5619 15.617 69.1733 15.617C68.4473 15.617 67.8789 15.8223 67.4683 16.233C67.0576 16.6437 66.7899 17.2303 66.6653 17.993H71.3953ZM66.6213 19.797C66.7166 20.8603 67.0173 21.6377 67.5233 22.129C68.0366 22.6203 68.7039 22.866 69.5253 22.866C69.9433 22.866 70.3026 22.8183 70.6033 22.723C70.9113 22.6203 71.1789 22.5103 71.4063 22.393C71.6409 22.2683 71.8499 22.1583 72.0333 22.063C72.2239 21.9603 72.4109 21.909 72.5943 21.909C72.8289 21.909 73.0123 21.997 73.1443 22.173L74.0243 23.273C73.7016 23.647 73.3459 23.9587 72.9573 24.208C72.5686 24.45 72.1653 24.6443 71.7473 24.791C71.3293 24.9303 70.9076 25.0257 70.4823 25.077C70.0569 25.1357 69.6463 25.165 69.2503 25.165C68.4583 25.165 67.7176 25.0367 67.0283 24.78C66.3463 24.516 65.7486 24.131 65.2353 23.625C64.7293 23.1117 64.3296 22.4773 64.0363 21.722C63.7429 20.9667 63.5963 20.0903 63.5963 19.093C63.5963 18.323 63.7209 17.597 63.9703 16.915C64.2269 16.233 64.5936 15.639 65.0703 15.133C65.5469 14.627 66.1263 14.2273 66.8083 13.934C67.4903 13.6333 68.2603 13.483 69.1183 13.483C69.8443 13.483 70.5116 13.6003 71.1203 13.835C71.7363 14.0623 72.2643 14.396 72.7043 14.836C73.1516 15.276 73.4963 15.8187 73.7383 16.464C73.9876 17.102 74.1123 17.8317 74.1123 18.653C74.1123 18.8803 74.1013 19.0673 74.0793 19.214C74.0573 19.3607 74.0206 19.478 73.9693 19.566C73.9179 19.654 73.8483 19.7163 73.7603 19.753C73.6723 19.7823 73.5586 19.797 73.4193 19.797H66.6213ZM81.9252 20.259C81.1845 20.2957 80.5685 20.3617 80.0772 20.457C79.5859 20.545 79.1935 20.6623 78.9002 20.809C78.6142 20.9557 78.4089 21.1243 78.2842 21.315C78.1669 21.4983 78.1082 21.7 78.1082 21.92C78.1082 22.36 78.2292 22.6717 78.4712 22.855C78.7205 23.0383 79.0652 23.13 79.5052 23.13C80.0112 23.13 80.4475 23.042 80.8142 22.866C81.1882 22.6827 81.5585 22.4003 81.9252 22.019V20.259ZM75.7432 15.232C76.4105 14.6307 77.1475 14.1833 77.9542 13.89C78.7609 13.5893 79.6335 13.439 80.5722 13.439C81.2469 13.439 81.8482 13.549 82.3762 13.769C82.9115 13.989 83.3625 14.297 83.7292 14.693C84.1032 15.0817 84.3892 15.5473 84.5872 16.09C84.7852 16.6327 84.8842 17.2267 84.8842 17.872V25H83.4982C83.2122 25 82.9922 24.9597 82.8382 24.879C82.6915 24.7983 82.5705 24.6297 82.4752 24.373L82.2332 23.647C81.9472 23.8963 81.6685 24.1163 81.3972 24.307C81.1332 24.4977 80.8582 24.659 80.5722 24.791C80.2862 24.9157 79.9782 25.011 79.6482 25.077C79.3255 25.143 78.9625 25.176 78.5592 25.176C78.0605 25.176 77.6059 25.11 77.1952 24.978C76.7845 24.846 76.4289 24.6517 76.1282 24.395C75.8349 24.131 75.6075 23.8047 75.4462 23.416C75.2849 23.0273 75.2042 22.58 75.2042 22.074C75.2042 21.656 75.3105 21.238 75.5232 20.82C75.7359 20.402 76.0989 20.0243 76.6122 19.687C77.1329 19.3423 77.8222 19.06 78.6802 18.84C79.5455 18.6127 80.6272 18.4843 81.9252 18.455V17.872C81.9252 17.1607 81.7749 16.64 81.4742 16.31C81.1735 15.9727 80.7409 15.804 80.1762 15.804C79.7582 15.804 79.4099 15.8553 79.1312 15.958C78.8525 16.0533 78.6069 16.1597 78.3942 16.277C78.1889 16.387 77.9945 16.4933 77.8112 16.596C77.6279 16.6913 77.4152 16.739 77.1732 16.739C76.9605 16.739 76.7809 16.6877 76.6342 16.585C76.4949 16.475 76.3775 16.3467 76.2822 16.2L75.7432 15.232ZM90.312 8.599V25H87.276V8.599H90.312ZM98.4761 16.981C99.5101 16.981 100.265 16.7317 100.742 16.233C101.226 15.7343 101.468 15.0523 101.468 14.187C101.468 13.791 101.406 13.4317 101.281 13.109C101.164 12.779 100.98 12.5003 100.731 12.273C100.489 12.0383 100.181 11.8587 99.8071 11.734C99.4331 11.6093 98.9894 11.547 98.4761 11.547H96.3861V16.981H98.4761ZM98.4761 9.039C99.5687 9.039 100.511 9.16733 101.303 9.424C102.102 9.68067 102.759 10.04 103.272 10.502C103.785 10.9567 104.163 11.4993 104.405 12.13C104.654 12.7607 104.779 13.4463 104.779 14.187C104.779 14.9717 104.651 15.6903 104.394 16.343C104.137 16.9957 103.749 17.5567 103.228 18.026C102.707 18.4953 102.051 18.862 101.259 19.126C100.467 19.3827 99.5394 19.511 98.4761 19.511H96.3861V25H93.0861V9.039H98.4761ZM109.16 15.529C109.519 14.8837 109.933 14.374 110.403 14C110.872 13.626 111.422 13.439 112.053 13.439C112.566 13.439 112.984 13.56 113.307 13.802L113.109 16.046C113.072 16.1927 113.013 16.2953 112.933 16.354C112.859 16.4053 112.757 16.431 112.625 16.431C112.507 16.431 112.339 16.4163 112.119 16.387C111.899 16.3503 111.693 16.332 111.503 16.332C111.224 16.332 110.975 16.3723 110.755 16.453C110.542 16.5337 110.351 16.6473 110.183 16.794C110.014 16.9407 109.86 17.1203 109.721 17.333C109.589 17.5457 109.464 17.7877 109.347 18.059V25H106.311V13.659H108.104C108.412 13.659 108.624 13.714 108.742 13.824C108.859 13.934 108.943 14.1247 108.995 14.396L109.16 15.529ZM119.461 13.483C120.311 13.483 121.085 13.6187 121.782 13.89C122.478 14.1613 123.076 14.55 123.575 15.056C124.073 15.5547 124.458 16.1633 124.73 16.882C125.001 17.6007 125.137 18.411 125.137 19.313C125.137 20.215 125.001 21.029 124.73 21.755C124.458 22.4737 124.073 23.086 123.575 23.592C123.076 24.098 122.478 24.4867 121.782 24.758C121.085 25.0293 120.311 25.165 119.461 25.165C118.603 25.165 117.822 25.0293 117.118 24.758C116.421 24.4867 115.823 24.098 115.325 23.592C114.826 23.086 114.437 22.4737 114.159 21.755C113.887 21.029 113.752 20.215 113.752 19.313C113.752 18.411 113.887 17.6007 114.159 16.882C114.437 16.1633 114.826 15.5547 115.325 15.056C115.823 14.55 116.421 14.1613 117.118 13.89C117.822 13.6187 118.603 13.483 119.461 13.483ZM119.461 22.888C120.326 22.888 120.968 22.591 121.386 21.997C121.804 21.3957 122.013 20.5047 122.013 19.324C122.013 18.1507 121.804 17.267 121.386 16.673C120.968 16.0717 120.326 15.771 119.461 15.771C118.573 15.771 117.921 16.0717 117.503 16.673C117.085 17.267 116.876 18.1507 116.876 19.324C116.876 20.5047 117.085 21.3957 117.503 21.997C117.921 22.591 118.573 22.888 119.461 22.888Z" fill="#254B86"/>
</svg>
